Jump_normalized_pl02_filtered_grf
version=1
nRows=22
nColumns=37
inDegrees=yes
endheader
time		1_ground_force_vx		1_ground_force_vy		1_ground_force_vz		1_ground_force_px		1_ground_force_py		1_ground_force_pz		1_ground_torque_x		1_ground_torque_y		1_ground_torque_z		2_ground_force_vx		2_ground_force_vy		2_ground_force_vz		2_ground_force_px		2_ground_force_py		2_ground_force_pz		2_ground_torque_x		2_ground_torque_y		2_ground_torque_z		3_ground_force_vx		3_ground_force_vy		3_ground_force_vz		3_ground_force_px		3_ground_force_py		3_ground_force_pz		3_ground_torque_x		3_ground_torque_y		3_ground_torque_z		4_ground_force_vx		4_ground_force_vy		4_ground_force_vz		4_ground_force_px		4_ground_force_py		4_ground_force_pz		4_ground_torque_x		4_ground_torque_y		4_ground_torque_z		
0.088667		-0.000000		0.000000		0.000000		0.149275		0.000000		0.265966		0.000000		0.000000		-0.000000		0.000000		0.000000		0.000000		-0.133537		0.000000		0.279475		0.000000		-0.000000		0.000000		-14.015281		315.851503		335.288303		0.374181		1.308713		1.915395		0.601645		-13.558807		-14.393197		-14.706096		407.635190		331.496540		-0.266367		1.308982		1.927423		-0.524178		14.529582		11.815732		
0.091217		-0.000000		0.000000		0.000000		0.149275		0.000000		0.265966		0.000000		0.000000		-0.000000		0.000000		0.000000		0.000000		-0.133537		0.000000		0.279475		0.000000		-0.000000		0.000000		-13.672195		312.786210		337.994334		0.374179		1.308718		1.915412		0.589982		-13.497355		-14.585150		-15.041083		405.063880		333.722272		-0.266367		1.308994		1.927504		-0.537916		14.486342		11.934950		
0.093768		-0.000000		0.000000		0.000000		0.149275		0.000000		0.265966		0.000000		0.000000		-0.000000		-0.000000		0.000000		0.000000		-0.133537		0.000000		0.279475		0.000000		-0.000000		0.000000		-13.171397		309.197095		340.167005		0.374174		1.308720		1.915428		0.571615		-13.418627		-14.762683		-15.321954		402.367291		336.107857		-0.266364		1.309006		1.927581		-0.549826		14.438878		12.061177		
0.096318		0.000000		-0.000000		-0.000000		0.149275		0.000000		0.265966		-0.000000		-0.000000		0.000000		-0.000000		0.000000		0.000000		-0.133537		0.000000		0.279475		0.000000		-0.000000		0.000000		-12.516037		305.119936		341.774233		0.374165		1.308717		1.915447		0.546503		-13.322859		-14.923359		-15.567704		399.561057		338.618194		-0.266360		1.309016		1.927654		-0.560550		14.387090		12.192712		
0.098869		0.000000		-0.000000		-0.000000		0.149275		0.000000		0.265966		-0.000000		-0.000000		0.000000		-0.000000		0.000000		0.000000		-0.133537		0.000000		0.279475		0.000000		-0.000000		0.000000		-11.724783		300.615051		342.786099		0.374149		1.308712		1.915473		0.515259		-13.210907		-15.064180		-15.799563		396.677081		341.215534		-0.266355		1.309024		1.927722		-0.570792		14.330784		12.327125		
0.101419		0.000000		-0.000000		-0.000000		0.149275		0.000000		0.265966		-0.000000		-0.000000		0.000000		-0.000000		-0.000000		0.000000		-0.133537		0.000000		0.279475		-0.000000		0.000000		-0.000000		-10.831138		295.756519		343.180535		0.374123		1.308706		1.915515		0.479156		-13.083923		-15.181916		-16.039218		393.750247		343.863077		-0.266350		1.309030		1.927782		-0.581273		14.269799		12.461855		
0.103970		0.000000		-0.000000		-0.000000		0.149275		0.000000		0.265966		-0.000000		-0.000000		0.000000		-0.000000		-0.000000		-0.000000		-0.133537		0.000000		0.279475		-0.000000		0.000000		-0.000000		-9.878213		290.619547		342.950472		0.374083		1.308703		1.915573		0.439934		-12.942982		-15.273588		-16.307048		390.803939		346.526922		-0.266345		1.309035		1.927835		-0.592699		14.204215		12.594917		
0.106520		0.000000		-0.000000		-0.000000		0.149275		0.000000		0.265966		-0.000000		-0.000000		0.000000		-0.000000		-0.000000		-0.000000		-0.133537		0.000000		0.279475		-0.000000		0.000000		-0.000000		-8.909927		285.268812		342.107158		0.374028		1.308706		1.915652		0.399435		-12.788711		-15.336799		-16.619969		387.841654		349.175887		-0.266339		1.309040		1.927880		-0.605699		14.134500		12.725365		
0.109071		0.000000		-0.000000		-0.000000		0.149275		0.000000		0.265966		-0.000000		-0.000000		0.000000		0.000000		-0.000000		-0.000000		-0.133537		0.000000		0.279475		-0.000000		0.000000		-0.000000		-7.962377		279.751062		340.679344		0.373960		1.308720		1.915749		0.359225		-12.621066		-15.369873		-16.988497		384.847763		351.779791		-0.266331		1.309046		1.927917		-0.620724		14.061536		12.853304		
0.111621		-0.000000		-0.000000		0.000000		0.149275		0.000000		0.265966		-0.000000		0.000000		0.000000		0.000000		-0.000000		-0.000000		-0.133537		0.000000		0.279475		-0.000000		0.000000		-0.000000		-7.058864		274.092281		338.706524		0.373887		1.308744		1.915862		0.320356		-12.439329		-15.371774		-17.412791		381.795540		354.307957		-0.266318		1.309054		1.927947		-0.637891		13.986497		12.979535		
0.114172		-0.000000		0.000000		0.000000		0.149275		0.000000		0.265966		0.000000		0.000000		-0.000000		0.000000		-0.000000		-0.000000		-0.133537		0.000000		0.279475		-0.000000		0.000000		-0.000000		-6.210804		268.299190		336.226787		0.373818		1.308781		1.915982		0.283392		-12.242241		-15.341723		-17.878482		378.657526		356.728325		-0.266301		1.309066		1.927972		-0.656796		13.910620		13.105019		
0.116722		-0.000000		0.000000		0.000000		0.149275		0.000000		0.265966		0.000000		0.000000		-0.000000		0.000000		0.000000		-0.000000		-0.133537		0.000000		0.279475		0.000000		-0.000000		0.000000		-5.422237		262.366394		333.268606		0.373759		1.308825		1.916102		0.248585		-12.028388		-15.278962		-18.353968		375.414365		359.009417		-0.266276		1.309079		1.927994		-0.676391		13.834962		13.230405		
0.119273		-0.000000		0.000000		0.000000		0.149275		0.000000		0.265966		0.000000		0.000000		-0.000000		0.000000		0.000000		0.000000		-0.133537		0.000000		0.279475		0.000000		-0.000000		0.000000		-4.693715		256.283922		329.840273		0.373718		1.308872		1.916214		0.216046		-11.796497		-15.182229		-18.793000		372.059354		361.124522		-0.266242		1.309092		1.928015		-0.695036		13.760149		13.355745		
0.121823		-0.000000		0.000000		0.000000		0.149275		0.000000		0.265966		0.000000		0.000000		-0.000000		0.000000		0.000000		0.000000		-0.133537		0.000000		0.279475		0.000000		-0.000000		0.000000		-4.022065		250.042248		325.920130		0.373696		1.308919		1.916312		0.185717		-11.545632		-15.049277		-19.143859		368.597337		363.056960		-0.266201		1.309104		1.928036		-0.710820		13.686167		13.480458		
0.124374		-0.000000		0.000000		0.000000		0.149275		0.000000		0.265966		0.000000		0.000000		-0.000000		0.000000		0.000000		0.000000		-0.133537		0.000000		0.279475		0.000000		-0.000000		0.000000		-3.397075		243.632260		321.450893		0.373693		1.308960		1.916392		0.157217		-11.275323		-14.876778		-19.363141		365.039160		364.805345		-0.266154		1.309114		1.928058		-0.722049		13.612255		13.603542		
0.126924		-0.000000		0.000000		0.000000		0.149275		0.000000		0.265966		0.000000		0.000000		-0.000000		-0.000000		0.000000		0.000000		-0.133537		0.000000		0.279475		0.000000		-0.000000		0.000000		-2.798810		237.041184		316.340524		0.373701		1.308992		1.916456		0.129710		-10.985661		-14.660787		-19.429647		361.394617		366.387997		-0.266104		1.309122		1.928081		-0.727783		13.536881		13.723925		
0.129475		0.000000		-0.000000		-0.000000		0.149275		0.000000		0.265966		-0.000000		-0.000000		0.000000		-0.000000		0.000000		0.000000		-0.133537		0.000000		0.279475		0.000000		-0.000000		0.000000		-2.197814		230.248626		310.471510		0.373714		1.309015		1.916506		0.101920		-10.677405		-14.397610		-19.353302		357.666190		367.845176		-0.266054		1.309127		1.928103		-0.728205		13.457859		13.840864		
0.132025		0.000000		-0.000000		-0.000000		0.149275		0.000000		0.265966		-0.000000		-0.000000		0.000000		-0.000000		0.000000		0.000000		-0.133537		0.000000		0.279475		0.000000		-0.000000		0.000000		-1.558907		223.226084		303.716529		0.373726		1.309026		1.916544		0.072294		-10.352025		-14.084738		-19.174777		353.844732		369.237750		-0.266013		1.309133		1.928120		-0.724660		13.372627		13.954368		
0.134576		0.000000		-0.000000		-0.000000		0.149275		0.000000		0.265966		-0.000000		-0.000000		0.000000		-0.000000		-0.000000		-0.000000		-0.133537		0.000000		0.279475		-0.000000		0.000000		-0.000000		-0.848424		215.941934		295.963819		0.373734		1.309025		1.916575		0.039336		-10.011754		-13.721823		-18.954871		349.908861		370.643008		-0.265983		1.309142		1.928130		-0.719321		13.278737		14.065584		
0.137126		0.000000		-0.000000		-0.000000		0.149275		0.000000		0.265966		-0.000000		-0.000000		0.000000		-0.000000		-0.000000		-0.000000		-0.133537		0.000000		0.279475		-0.000000		0.000000		-0.000000		-0.042781		208.368285		287.138107		0.373735		1.309011		1.916601		0.001984		-9.659270		-13.310780		-18.755711		345.827705		372.147804		-0.265968		1.309157		1.928132		-0.714505		13.174405		14.177083		
0.139677		0.000000		-0.000000		-0.000000		0.149275		0.000000		0.265966		-0.000000		-0.000000		0.000000		-0.000000		-0.000000		-0.000000		-0.133537		0.000000		0.279475		-0.000000		0.000000		-0.000000		0.865397		200.484571		277.210488		0.373731		1.308988		1.916626		-0.040131		-9.297098		-12.855119		-18.623034		341.566564		373.841188		-0.265969		1.309178		1.928121		-0.712002		13.058882		14.292823		
0.142227		0.000000		-0.000000		-0.000000		0.149275		0.000000		0.265966		-0.000000		-0.000000		0.000000		0.000000		-0.000000		-0.000000		-0.133537		0.000000		0.279475		-0.000000		0.000000		-0.000000		1.863123		192.277430		266.207341		0.373725		1.308958		1.916652		-0.086501		-8.926985		-12.359375		-18.576031		337.094469		375.805857		-0.265982		1.309207		1.928097		-0.712668		12.932588		14.417754		
